<svg width="325" height="255" viewBox="0 0 325 255" fill="none" xmlns="http://www.w3.org/2000/svg">
<path fill-rule="evenodd" clip-rule="evenodd" d="M188.813 113.094C194.336 113.094 198.813 117.571 198.813 123.094V209.271L241.96 209.271V189.398C241.96 183.875 246.438 179.398 251.96 179.398H257.13L247.739 163.004L267.002 156.082L265.075 145.882L281.256 160.09L261.994 166.647L268.735 179.398H275.878C281.401 179.398 285.878 183.875 285.878 189.398V243.717C285.878 246.77 284.51 249.504 282.353 251.338C280.531 253.253 277.959 254.446 275.108 254.446L161.042 254.446C155.52 254.446 151.042 249.969 151.042 244.446V219.271L151.043 219.197V123.094C151.043 117.571 155.52 113.094 161.043 113.094H188.813Z" fill="#8C93A6"/>
<path d="M277.505 191.244L268.465 185.227L270.083 191.056L268.465 196.885L277.505 191.244Z" fill="white"/>
<path d="M251.206 190.868L260.247 196.885L258.526 191.056L260.247 185.227L251.206 190.868Z" fill="white"/>
<path fill-rule="evenodd" clip-rule="evenodd" d="M132.002 29.5543C126.479 29.5543 122.002 34.0315 122.002 39.5543V142.867L73.9304 142.867V117.671C73.9304 112.148 69.4533 107.671 63.9304 107.671H57.0299L67.492 88.3566L46.0313 80.2015L48.1774 68.1835L30.1504 84.9229L51.6111 92.6488L44.0998 107.671H35C29.4772 107.671 25 112.148 25 117.671V185.231C25 188.211 26.3033 190.886 28.3711 192.718C30.2031 194.786 32.8785 196.089 35.8584 196.089H165.225C170.748 196.089 175.225 191.612 175.225 186.089V152.867L175.225 152.798V39.5543C175.225 34.0315 170.748 29.5543 165.225 29.5543H132.002Z" fill="#193956"/>
<path d="M34.3286 121.628L44.4008 114.539L42.5981 121.406L44.4008 128.274L34.3286 121.628Z" fill="white"/>
<path d="M63.6294 121.185L53.5572 128.274L55.4743 121.406L53.5572 114.539L63.6294 121.185Z" fill="white"/>
<path d="M0 13.5543L13.5 0.554321L12.5 10.0543L29 16.5543L7.5 39.5543L16 19.5543L0 13.5543Z" fill="#2C72A6"/>
<path d="M296 86.5543L309.5 73.5543L308.5 83.0543L325 89.5543L303.5 112.554L312 92.5543L296 86.5543Z" fill="#2C72A6"/>
</svg>
